HIERARCHY
ROOT Hips
{
 OFFSET 0.000000 0.000000 0.000000
 CHANNELS 6 Xposition Yposition Zposition Yrotation Xrotation Zrotation
 JOINT Chest
 {
  OFFSET 0.000000 12.778769 -0.025672
  CHANNELS 3 Yrotation Xrotation Zrotation
  JOINT Chest2
  {
   OFFSET 0.000000 9.048585 0.046633
   CHANNELS 3 Yrotation Xrotation Zrotation
   JOINT Chest3
   {
    OFFSET 0.000000 8.173956 0.000000
    CHANNELS 3 Yrotation Xrotation Zrotation
    JOINT Chest4
    {
     OFFSET 0.000000 8.173956 0.000000
     CHANNELS 3 Yrotation Xrotation Zrotation
     JOINT Neck
     {
      OFFSET 0.000000 11.254521 0.000000
      CHANNELS 3 Yrotation Xrotation Zrotation
      JOINT Head
      {
       OFFSET 0.000000 7.627541 0.110895
       CHANNELS 3 Yrotation Xrotation Zrotation
       End Site
       {
        OFFSET 0.000000 14.324091 0.057923
       }
      }
     }
     JOINT RightCollar
     {
      OFFSET -2.416021 6.309018 0.000000
      CHANNELS 3 Yrotation Xrotation Zrotation
      JOINT RightShoulder
      {
       OFFSET -12.309578 0.000000 0.000000
       CHANNELS 3 Yrotation Xrotation Zrotation
       JOINT RightElbow
       {
        OFFSET -26.817880 0.000000 0.000000
        CHANNELS 3 Yrotation Xrotation Zrotation
        JOINT RightWrist
        {
         OFFSET -22.046493 0.000000 0.005727
         CHANNELS 3 Yrotation Xrotation Zrotation
         End Site
         {
          OFFSET -16.516461 0.000000 0.000000
         }
        }
       }
      }
     }
     JOINT LeftCollar
     {
      OFFSET 2.416021 6.309018 0.000000
      CHANNELS 3 Yrotation Xrotation Zrotation
      JOINT LeftShoulder
      {
       OFFSET 12.309578 0.000000 0.000000
       CHANNELS 3 Yrotation Xrotation Zrotation
       JOINT LeftElbow
       {
        OFFSET 26.817880 0.000000 0.000000
        CHANNELS 3 Yrotation Xrotation Zrotation
        JOINT LeftWrist
        {
         OFFSET 22.046493 0.000000 0.005727
         CHANNELS 3 Yrotation Xrotation Zrotation
         End Site
         {
          OFFSET 16.516461 0.000000 0.000000
         }
        }
       }
      }
     }
    }
   }
  }
 }
 JOINT RightHip
 {
  OFFSET -10.582077 0.125794 0.012836
  CHANNELS 3 Yrotation Xrotation Zrotation
  JOINT RightKnee
  {
   OFFSET 0.000000 -43.218284 0.001140
   CHANNELS 3 Yrotation Xrotation Zrotation
   JOINT RightAnkle
   {
    OFFSET 0.000000 -37.342314 0.092095
    CHANNELS 3 Yrotation Xrotation Zrotation
    JOINT RightToe
    {
     OFFSET 0.000000 -11.963287 17.799678
     CHANNELS 3 Yrotation Xrotation Zrotation
     End Site
     {
      OFFSET 0.000000 -1.355498 5.291052
     }
    }
   }
  }
 }
 JOINT LeftHip
 {
  OFFSET 10.582077 0.125794 0.012836
  CHANNELS 3 Yrotation Xrotation Zrotation
  JOINT LeftKnee
  {
   OFFSET 0.000000 -43.218284 0.001140
   CHANNELS 3 Yrotation Xrotation Zrotation
   JOINT LeftAnkle
   {
    OFFSET 0.000000 -37.342314 0.092095
    CHANNELS 3 Yrotation Xrotation Zrotation
    JOINT LeftToe
    {
     OFFSET 0.000000 -11.963287 17.799678
     CHANNELS 3 Yrotation Xrotation Zrotation
     End Site
     {
      OFFSET 0.000000 -1.355498 5.291052
     }
    }
   }
  }
 }
}
MOTION
Frames: 5
Frame Time: 0.016667
-175.224541 55.345161 -77.178078 101.594304 -87.772577 70.607261 3.825111 -1.604923 0.500377 2.228007 -0.321147 0.788989 2.228007 -0.321147 0.788989 1.671418 -0.237988 0.592920 18.279914 34.224751 5.600805 31.723506 27.445025 7.808540 13.702649 15.291430 7.444695 -102.252313 22.297599 9.397298 20.060780 53.601245 6.828093 -2.250874 -12.663132 -2.786202 -31.519971 10.221219 -25.066677 90.734404 10.576509 -24.791221 -12.533518 63.727896 -16.026699 -0.543361 3.099559 -12.198657 -175.678814 27.179224 174.819906 149.857196 -59.087109 -146.968634 1.497312 8.034376 16.645997 -0.779873 -0.771234 -0.661487 169.494960 21.950002 178.410343 99.843995 -75.281295 -128.484281 38.170792 -27.400241 -70.037438 0.453386 -2.170749 0.211164
-175.242820 55.660150 -77.381804 107.015090 -87.686893 65.057044 3.823608 -1.777498 0.739466 2.226364 -0.308008 0.801675 2.226364 -0.308008 0.801675 1.670176 -0.228090 0.602386 18.193343 34.303266 5.558376 31.582720 27.591148 7.762338 13.706356 15.477899 7.390044 -102.237700 22.067131 10.134051 19.373046 53.033314 6.385515 -4.305385 -12.279515 -4.461041 -31.524000 10.180087 -25.145269 90.382803 10.154860 -24.882338 -11.896315 63.803483 -15.683363 -0.046286 3.198804 -12.641020 -175.750562 27.459524 174.723663 149.607624 -59.351266 -146.679452 1.648069 8.260576 16.583643 -0.797066 -0.841183 -0.636397 169.283511 22.210584 178.150491 98.284128 -75.468641 -127.017667 38.362881 -27.652370 -70.369507 0.429962 -2.081643 0.207112
-175.248286 55.903510 -77.564976 114.491042 -87.665294 57.622910 3.779073 -1.917352 0.817183 2.238803 -0.297615 0.818287 2.238803 -0.297615 0.818287 1.679501 -0.220218 0.614814 18.084327 34.372599 5.534529 31.398278 27.715346 7.747848 13.571230 15.629988 7.327529 -102.187223 21.698953 10.945803 18.851850 52.367542 6.173076 -6.745868 -11.837023 -6.353211 -31.559014 10.133101 -25.283686 89.905555 9.694013 -25.019960 -11.281578 63.900492 -15.356247 0.489249 3.366619 -12.886302 -175.888424 27.735825 174.794763 149.348841 -59.619403 -146.408019 1.840384 8.338302 16.524371 -0.855942 -0.833400 -0.626846 169.009549 22.446412 178.056978 97.198612 -75.605512 -126.010460 38.215723 -27.770936 -70.604179 0.411890 -2.261969 0.242213
-175.260250 56.134861 -77.756688 118.954549 -87.657181 53.255808 3.803418 -1.834295 0.840875 2.251867 -0.283313 0.829420 2.251867 -0.283313 0.829420 1.689285 -0.209433 0.623117 17.982222 34.411488 5.531121 31.220279 27.780414 7.760484 13.408850 15.702112 7.276760 -102.157067 21.321922 11.802228 18.511863 51.816068 6.192632 -9.252102 -11.410038 -8.374938 -31.609558 10.084791 -25.369585 89.309056 9.328432 -25.265650 -10.614461 63.951731 -14.980251 1.058735 3.525590 -12.956463 -176.031858 27.860759 174.909099 148.960280 -59.949401 -146.028473 1.966670 8.202228 16.341815 -0.855762 -0.716485 -0.562989 168.799452 22.509477 178.018315 96.318612 -75.683533 -125.196671 38.088540 -27.656815 -70.867712 0.152448 -2.330438 0.212861
-175.230605 56.267963 -77.906578 129.087816 -87.554565 43.246688 3.700823 -1.889942 0.798040 2.250486 -0.266003 0.825230 2.250486 -0.266003 0.825230 1.688224 -0.196467 0.619911 17.923587 34.435182 5.557795 31.114110 27.814660 7.817665 13.263441 15.725259 7.285574 -102.071602 21.083268 12.737008 18.265034 51.305469 6.299983 -11.539964 -11.098229 -10.515584 -31.595110 10.110041 -25.323432 88.608994 9.104566 -25.637568 -9.919901 63.887620 -14.568560 1.663159 3.739336 -12.844692 -176.341677 28.174024 175.062676 148.626104 -60.162728 -145.773192 2.185941 8.123507 16.218518 -0.872131 -0.614891 -0.518124 168.553867 22.763532 177.981838 95.839883 -75.727910 -124.675293 38.214571 -28.001289 -71.120916 0.473427 -2.283809 0.216014
